<svg width="24" height="23" viewBox="0 0 24 23" fill="none" xmlns="http://www.w3.org/2000/svg">
<path d="M22.2408 18.2172L18.44 14.4164L15.5165 13.2086C16.4899 11.8243 17.0114 10.1728 17.0095 8.48053C17.0095 3.93145 13.3086 0.23053 8.75952 0.23053C4.21044 0.23053 0.509521 3.93145 0.509521 8.48053C0.509521 13.0296 4.21044 16.7305 8.75952 16.7305C10.4665 16.7325 12.1317 16.2019 13.5229 15.2129L14.7276 18.1285L18.5283 21.9295C18.772 22.1733 19.0614 22.3666 19.3799 22.4986C19.6984 22.6305 20.0397 22.6984 20.3844 22.6984C20.7292 22.6984 21.0705 22.6305 21.389 22.4986C21.7075 22.3667 21.9969 22.1734 22.2407 21.9296C22.4844 21.6859 22.6778 21.3965 22.8097 21.078C22.9417 20.7595 23.0096 20.4182 23.0096 20.0734C23.0096 19.7287 22.9417 19.3874 22.8098 19.0689C22.6779 18.7504 22.4845 18.461 22.2408 18.2172ZM2.00952 8.48053C2.00952 4.75865 5.03765 1.73053 8.75952 1.73053C12.4814 1.73053 15.5095 4.75865 15.5095 8.48053C15.5095 12.2024 12.4814 15.2305 8.75952 15.2305C5.03765 15.2305 2.00952 12.2024 2.00952 8.48053ZM21.18 20.8688C20.9689 21.0795 20.6828 21.1978 20.3845 21.1978C20.0862 21.1978 19.8002 21.0795 19.589 20.8688L15.9997 17.2795L14.8797 14.5685L17.5908 15.6885L21.1801 19.2779C21.3908 19.489 21.5091 19.7751 21.509 20.0734C21.509 20.3716 21.3907 20.6577 21.18 20.8688Z" fill="white"/>
</svg>
